<?xml version="1.0" standalone="no"?>
<!DOCTYPE svg PUBLIC "-//W3C//DTD SVG 20010904//EN"
 "http://www.w3.org/TR/2001/REC-SVG-20010904/DTD/svg10.dtd">
<svg version="1.0" xmlns="http://www.w3.org/2000/svg"
 width="260.000000pt" height="260.000000pt" viewBox="0 0 260.000000 260.000000"
 preserveAspectRatio="xMidYMid meet">
<metadata>
Created by potrace 1.11, written by Peter Selinger 2001-2013
</metadata>
<g transform="translate(0.000000,260.000000) scale(0.100000,-0.100000)"
fill="#000000" stroke="none">
<path d="M1228 2595 c-2 -1 -30 -5 -63 -9 -33 -3 -71 -8 -85 -11 -14 -3 -37
-7 -53 -10 -57 -8 -280 -89 -307 -111 -8 -7 -18 -12 -21 -11 -14 4 -198 -125
-262 -183 -121 -111 -232 -263 -297 -405 -30 -66 -77 -192 -84 -228 -21 -101
-26 -132 -32 -198 -11 -102 -6 -262 10 -335 4 -16 9 -42 12 -59 2 -16 14 -61
26 -100 12 -38 23 -72 23 -75 2 -12 52 -120 78 -170 98 -184 289 -387 453
-481 183 -105 385 -174 532 -183 27 -2 53 -5 58 -8 9 -6 118 -2 194 6 232 24
446 109 638 252 298 224 483 569 508 949 3 44 6 85 6 90 0 22 -12 162 -17 185
-3 14 -10 51 -16 83 -11 65 -56 197 -91 273 -114 241 -307 448 -539 577 -111
61 -294 127 -395 141 -111 16 -268 28 -276 21z"/>
</g>
</svg>
